# xmcd
#
# Track frame offsets: 
#        150
#        15624
#        29811
#
# Disc length: 587 seconds
#
# Revision: 0
# Processed by: cddbd v1.5.2PL0 Copyright (c) Steve Scherf et al.
# Submitted via: ExactAudioCopy v0.95b4
#
DISCID=1f024903
DTITLE=Melissa Jiminez - Untouchable
DYEAR=2007
DGENRE=R&B
TTITLE0=Untouchable
TTITLE1=Untouchable (INST)
TTITLE2=Untouchable (Acapella)
EXTD=
EXTT0=
EXTT1=
EXTT2=
PLAYORDER=
